<svg width="241" height="332" viewBox="0 0 241 332" fill="none" xmlns="http://www.w3.org/2000/svg">
<path d="M54.8271 244.338C56.5934 244.337 58.3673 244.257 60.1281 244.41C61.853 244.652 63.5777 244.942 65.2588 245.406C65.7967 245.54 66.3554 245.556 66.9007 245.653C67.479 245.782 68.0243 246.023 68.5775 246.232C69.3827 246.541 70.0406 247.21 70.3144 248.03C70.4726 248.468 70.3012 248.966 70.0089 249.309C69.638 249.652 69.1503 249.825 68.7009 250.041C68.9496 250.646 69.3086 251.397 68.8941 252.013C68.4554 252.539 67.7245 252.646 67.1104 252.862C66.9943 252.903 67.0861 254.723 67.0859 254.926C67.0851 255.643 67.0863 256.362 67.0975 257.079C67.1188 258.452 67.1666 259.821 67.2952 261.189C67.6516 264.971 68.2987 269.158 70.2889 272.46C70.8432 273.379 71.4009 274.306 72.0426 275.171C72.7244 276.049 73.3321 276.988 74.1176 277.782C74.3466 278.014 74.5375 278.283 74.7719 278.513C74.9925 278.73 75.2277 278.912 75.4445 279.138C75.9275 279.642 76.4222 280.134 76.9277 280.616C77.9388 281.578 78.9933 282.494 80.0874 283.361C81.8161 284.73 83.5876 286.063 85.3689 287.363C86.293 288.116 87.2466 288.832 88.1892 289.563C88.9245 290.174 89.6586 290.786 90.4256 291.358C92.3285 292.776 94.1387 294.325 95.7748 296.046C99.4295 299.891 101.853 304.6 101.75 310.011C101.663 314.647 99.7555 319.862 96.0557 322.846C95.7831 323.066 95.4988 323.278 95.2292 323.504C94.4547 324.148 93.5011 324.553 92.5115 324.722C89.6869 325.204 86.7448 325.008 83.8917 325.012C77.9515 325.012 72.0204 325.016 66.0798 325.056C60.1297 325.095 54.1786 325.115 48.2301 325.182C42.173 325.25 36.1154 325.266 30.058 325.228C28.039 325.215 25.9538 325.309 23.9458 325.076C22.954 325.028 22.0104 324.69 21.0875 324.354C16.85 322.811 13.9688 318.52 12.8351 314.312C12.1129 311.632 11.9645 308.79 12.5633 306.071C13.061 303.81 14.2695 301.727 15.497 299.782C16.8683 297.61 18.4783 295.583 20.2582 293.732C24.0258 289.813 28.8063 287.121 33.1156 283.881C36.524 281.318 39.6562 278.404 42.306 275.058C42.8466 274.234 43.4848 273.538 43.98 272.674C44.482 271.8 44.927 270.892 45.3121 269.959C47.3769 264.958 47.9718 259.139 47.3578 253.789C47.3512 253.732 47.3444 253.675 47.3376 253.617C46.6141 253.369 45.7585 253.157 45.3441 252.448C44.8631 251.803 45.0757 250.964 45.2099 250.242C44.5345 249.982 43.7502 249.764 43.3301 249.124C42.9842 248.62 43.0278 247.957 43.2329 247.408C43.4533 246.687 44.1407 246.264 44.7559 245.906C45.6265 245.491 46.5583 245.184 47.5194 245.07C49.9255 244.783 52.3712 244.303 54.8271 244.338ZM60.5568 245.347C60.2535 245.428 60.3714 245.823 60.3103 246.058C61.3391 246.153 62.3536 246.394 63.389 246.412C63.3824 246.166 63.378 245.92 63.3736 245.677C62.4496 245.486 61.5081 245.21 60.5568 245.347ZM44.5347 248.083C44.5817 248.512 44.9656 248.737 45.3278 248.885C45.3802 248.821 45.4849 248.694 45.5383 248.63C45.3812 247.983 45.3877 247.316 45.3812 246.657C44.9276 246.991 44.5118 247.487 44.5347 248.083ZM68.9104 248.972C69.0336 248.742 69.2409 248.513 69.181 248.235C69.1067 247.724 68.6956 247.361 68.282 247.104C68.3573 247.765 68.6551 248.366 68.9104 248.972ZM51.6261 249.321C50.7098 249.454 49.7802 249.469 48.8682 249.64C48.0009 249.771 47.0997 250.004 46.4364 250.61C46.1179 250.878 46.0721 251.339 46.1659 251.722C46.3011 252.003 46.5816 252.202 46.8783 252.286C47.0975 252.31 47.2928 252.17 47.4926 252.099C47.3245 251.666 47.0639 251.111 47.3803 250.687C47.9105 250.301 48.6022 250.264 49.2294 250.162C50.2604 250.069 51.2837 249.885 52.3213 249.878C53.4417 249.738 54.573 249.796 55.699 249.795C56.6438 249.81 57.594 249.741 58.5344 249.873C60.6498 249.939 62.7739 250.149 64.8294 250.675C65.2571 250.804 65.7359 250.914 66.0513 251.252C66.1429 251.606 66.1582 251.977 66.2019 252.343C66.6327 252.186 67.0768 252.053 67.4762 251.823C67.6649 251.699 67.8941 251.515 67.8656 251.265C67.7097 250.823 67.2297 250.641 66.8324 250.482C65.8026 250.124 64.7422 249.84 63.661 249.698C61.719 249.496 59.7771 249.215 57.82 249.229C56.6789 249.104 55.5268 249.106 54.3823 249.169C53.4677 249.304 52.5381 249.167 51.6261 249.321ZM62.225 254.869C62.1431 256.104 61.8421 257.323 61.8638 258.568C61.8713 259.638 61.8082 260.714 61.95 261.78C61.9685 262.564 61.9882 263.351 62.1027 264.131C62.3667 265.962 62.4573 267.817 62.8305 269.633C63.292 272.743 64.3372 275.725 65.5012 278.632C65.9561 279.8 66.6281 280.864 67.1562 281.999C68.0367 283.795 69.1242 285.476 70.1379 287.198C71.2715 289.032 72.0558 291.053 73.1457 292.91C73.3966 293.352 73.5352 293.845 73.7359 294.31C73.8942 294.722 74.396 294.759 74.756 294.894C74.7528 294.46 74.745 294.021 74.5367 293.631C73.8757 291.867 72.909 290.244 72.0504 288.575C71.555 287.674 70.8635 286.898 70.3976 285.978C69.3492 284.24 68.3455 282.476 67.4246 280.667C66.8956 279.584 66.2725 278.542 65.8853 277.396C64.9624 275.113 64.2434 272.744 63.8157 270.317C63.5244 268.695 63.2299 267.071 63.0443 265.434C62.9025 264.484 62.9973 263.52 62.8589 262.571C62.848 260.838 62.7761 259.097 62.9517 257.37C62.9354 256.504 63.0565 255.646 63.0784 254.782C63.1275 254.112 63.2596 253.435 63.1548 252.765C63.024 252.667 62.8908 252.579 62.7534 252.5C62.2739 253.198 62.3428 254.068 62.225 254.869ZM63.7326 253.021C63.7565 254.147 63.6016 255.263 63.6082 256.389C63.5994 256.936 63.4686 257.482 63.5339 258.033C63.6942 259.333 63.5045 260.65 63.6986 261.948C63.7018 263.089 63.9746 264.202 64.1329 265.326C64.2987 266.724 64.6729 268.083 64.9184 269.467C65.3363 271.02 65.6646 272.598 66.1326 274.139C66.4609 275.124 66.8428 276.093 67.2476 277.049C67.913 278.352 68.4803 279.702 69.1884 280.983C70.5772 283.835 72.446 286.413 73.9428 289.205C74.3627 289.934 74.6486 290.73 75.0708 291.459C75.4537 292.12 75.6904 292.852 76.0504 293.527C76.3154 294.021 76.4464 294.574 76.6929 295.079C76.7857 295.307 77.0354 295.383 77.2558 295.439C78.0698 295.624 78.9033 295.703 79.7334 295.79C80.4763 295.831 81.2194 295.985 81.9645 295.872C81.5019 294.335 81.1812 292.737 80.4196 291.31C79.8479 290.241 79.4312 289.089 78.747 288.084C77.7445 286.641 76.5814 285.32 75.3967 284.027C74.8087 283.309 74.0461 282.758 73.4886 282.013C71.1136 279.31 69.0844 276.293 67.5733 273.024C67.294 272.247 67.0443 271.458 66.7223 270.697C66.2793 269.38 65.9653 268.021 65.7405 266.651C65.4382 265.238 65.3783 263.789 65.2539 262.355C65.2429 260.517 65.2354 258.679 65.2549 256.843C65.3258 255.85 65.4317 254.845 65.3236 253.856C64.9546 253.356 64.3447 253.072 63.7326 253.021ZM50.5983 262.748C50.3986 262.734 50.1891 262.824 50.1173 263.025C49.9602 263.413 49.9285 263.838 49.8817 264.253C49.7224 266.612 49.3744 268.966 48.7024 271.237C48.3075 272.657 47.7172 274.01 47.1718 275.376C46.6569 276.588 45.9968 277.73 45.3236 278.859C45.0727 279.302 44.7836 279.752 44.7193 280.27C44.9168 280.829 45.6302 280.734 45.9729 280.379C46.5653 279.755 46.9101 278.95 47.305 278.198C48.1582 276.595 48.7669 274.879 49.3887 273.178C49.9102 271.468 50.4797 269.767 50.771 267.999C50.9936 266.454 51.3733 264.887 51.0786 263.325C51.0195 263.072 50.9508 262.645 50.5983 262.748ZM39.7564 283.206C39.1684 283.785 38.5846 284.379 38.1004 285.051C37.4939 285.893 36.8131 286.681 36.2478 287.555C35.6664 288.461 34.9355 289.266 34.4303 290.223C34.1685 290.726 33.7758 291.166 33.6131 291.718C33.5934 291.984 33.4899 292.343 33.7135 292.552C34.176 292.582 34.6266 292.447 35.0882 292.445C35.6391 292.417 36.2456 292.511 36.7323 292.19C37.3115 291.797 37.6171 291.135 37.9323 290.534C38.6382 289.023 39.5328 287.607 40.5441 286.286C41.3133 285.095 42.4697 284.245 43.3838 283.18C42.6159 282.867 41.778 282.856 40.9684 282.745C40.5112 282.668 40.0728 282.892 39.7564 283.206ZM44.4792 283.779C43.8693 284.301 43.387 284.955 42.9235 285.606C41.8031 287.243 40.6936 288.896 39.7827 290.661C39.5635 291.064 39.2493 291.415 39.079 291.846C39.0376 292.065 38.9623 292.376 39.175 292.537C39.3321 292.679 39.5481 292.616 39.7379 292.6C40.6379 292.448 41.6133 292.688 42.4512 292.233C43.2508 291.748 43.7418 290.91 44.1596 290.099C44.7575 288.98 45.3608 287.86 46.1244 286.844C46.671 285.981 47.3452 285.213 47.9541 284.396C47.1545 284.057 46.3132 283.837 45.4668 283.659C45.138 283.601 44.7432 283.515 44.4792 283.779ZM54.9121 284.603C54.2903 284.789 53.8495 285.297 53.4699 285.796C54.1278 285.973 54.8096 285.882 55.4818 285.888C56.6448 285.884 57.8088 285.902 58.9728 285.903C60.3955 285.918 61.7461 286.414 63.1349 286.646C63.6805 286.769 64.0765 286.304 64.4114 285.955C63.4983 285.424 62.439 285.292 61.4528 284.958C60.4676 284.632 59.429 284.515 58.3992 284.449C57.2423 284.317 56.0379 284.256 54.9121 284.603ZM22.7021 294.071C21.5391 295.379 20.2148 296.545 19.1738 297.959C18.1189 299.388 17.1315 300.887 16.4705 302.545C15.7821 304.038 15.5693 305.682 15.3544 307.295C15.2127 308.195 15.1428 309.105 15.1744 310.017C15.1985 312.241 15.9446 314.403 17.0302 316.327C17.5538 317.194 18.202 317.979 18.8347 318.77C19.3136 319.301 19.8156 319.887 20.5202 320.115C20.7886 320.2 21.0123 319.97 21.2359 319.862C21.0089 319.646 20.7787 319.437 20.541 319.236C19.7479 318.591 19.1728 317.725 18.6655 316.849C18.2509 316.022 17.8157 315.2 17.4949 314.331C17.0531 313.051 16.7443 311.715 16.6875 310.36C16.6951 309.06 16.6308 307.749 16.885 306.467C17.1098 305.299 17.292 304.106 17.7828 303.013C18.241 301.765 18.6665 300.492 19.3658 299.355C19.6975 298.849 20.0051 298.328 20.3313 297.821C21.1365 296.645 22.1008 295.592 23.0129 294.502C23.5922 293.833 24.4804 293.314 24.5981 292.36C23.7986 292.719 23.2804 293.446 22.7021 294.071ZM88.1987 294.848C88.802 296.091 90.0316 296.838 90.8214 297.945C91.4881 298.84 92.2234 299.68 92.8506 300.604C94.1128 302.277 95.1362 304.131 95.8399 306.107C96.129 307.05 96.3275 308.023 96.4313 309.005C96.4695 310.242 96.4924 311.484 96.357 312.717C96.3908 313.967 95.9098 315.145 95.4188 316.27C95.1537 316.849 94.9005 317.456 94.4586 317.928C93.5487 318.878 92.4098 319.628 91.1432 320C90.0915 320.227 88.9952 320.237 87.9717 320.6C88.539 320.682 89.1184 320.718 89.6879 320.631C90.4734 320.509 91.2906 320.491 92.0334 320.179C93.7932 319.479 95.2037 318.041 96.033 316.356C96.4705 315.48 96.8458 314.565 97.0967 313.618C97.3661 312.261 97.5668 310.886 97.6323 309.505C97.532 307.458 97.028 305.426 96.0798 303.607C95.2671 301.979 94.1413 300.542 93.0501 299.097C92.2614 298.105 91.2292 297.356 90.3336 296.472C89.6521 295.892 89.029 295.216 88.1987 294.848ZM32.7534 295.699C32.4031 295.777 31.992 295.862 31.801 296.204C31.5173 296.673 31.3962 297.215 31.2381 297.737C31.0559 298.426 30.7395 299.082 30.6665 299.799C30.6119 300.373 30.4538 300.929 30.3196 301.49C30.0512 302.907 30.0938 304.358 30.1277 305.793C30.2171 306.358 30.2029 306.995 30.5444 307.48C31.1195 307.552 31.6955 307.441 32.2659 307.381C32.8953 307.329 33.5196 307.238 34.1424 307.14C34.1697 304.26 34.0028 301.352 34.582 298.513C34.7194 297.503 35.2268 296.6 35.4319 295.609C35.0838 295.528 34.726 295.458 34.3692 295.524C33.8334 295.612 33.2836 295.567 32.7534 295.699ZM36.2193 302.958C36.2291 303.543 36.1102 304.119 36.1178 304.704C36.1068 305.325 36.2247 305.939 36.2225 306.562C36.2454 306.77 36.2028 307.13 36.5041 307.144C37.1607 307.233 37.8133 307.054 38.4699 307.059C38.8976 307.043 39.3297 307.081 39.755 307.018C39.9808 306.972 40.258 306.818 40.2416 306.555C40.1903 305.861 39.971 305.174 40.067 304.473C40.1686 303.806 40.1357 303.132 40.1849 302.463C40.3464 301.156 40.3975 299.831 40.7315 298.553C40.8394 298.037 41.0447 297.531 41.0347 297C40.8491 296.745 40.5208 296.666 40.2373 296.58C39.394 296.364 38.5332 296.221 37.6703 296.105C36.4846 298.182 36.3633 300.629 36.2193 302.958ZM74.8758 299.375C75.2784 299.86 75.8545 300.227 76.5123 300.145C76.4894 299.711 76.4741 299.26 76.2778 298.866C76.185 298.677 76.0181 298.452 75.7802 298.543C75.3274 298.595 75.1082 299.04 74.8758 299.375ZM78.7128 298.973L78.619 298.976C78.4378 299.272 78.6757 299.617 78.8099 299.891C78.9889 300.275 79.4449 300.318 79.8124 300.393C80.6471 300.517 81.4424 300.808 82.2617 301C82.4571 301.032 82.7058 301.14 82.8193 300.906C82.7374 300.444 82.6164 299.841 82.0937 299.695C81.0059 299.313 79.8604 299.062 78.7128 298.973ZM76.3606 303.018C76.2963 303.076 76.2308 303.135 76.1621 303.194C76.4512 304.334 76.893 305.433 77.1037 306.594C77.6754 309.085 77.5991 311.655 77.5882 314.195C77.5904 314.75 77.4637 315.303 77.5292 315.861C77.899 315.052 78.0507 314.17 78.2165 313.305C78.4173 311.973 78.5995 310.632 78.5449 309.283C78.4828 308.042 78.343 306.803 78.1238 305.58C78.0103 304.933 77.934 304.267 77.6515 303.669C77.4155 303.185 76.8058 303.177 76.3606 303.018ZM79.2047 303.643C79.1611 304.504 79.4339 305.335 79.4656 306.192C79.5681 306.963 79.676 307.733 79.6663 308.514C79.7971 309.567 79.7557 310.629 79.7623 311.688C79.7667 312.414 79.6193 313.13 79.4939 313.844C79.3336 314.745 78.9397 315.582 78.7225 316.47C79.7513 315.461 80.6109 314.268 81.126 312.916C82.0577 310.647 82.5596 308.221 82.7908 305.786C82.7908 305.377 82.8802 304.931 82.6851 304.556C82.3806 304.358 82.0174 304.291 81.6726 304.207C80.8478 304.025 80.0187 303.863 79.2047 303.643ZM88.2676 311.278C88.129 312.102 87.7581 312.899 87.8477 313.751C88.2764 312.994 88.4466 312.134 88.678 311.307C89.0555 309.996 88.9301 308.617 88.8787 307.274C88.632 308.601 88.5916 309.961 88.2676 311.278Z" fill="url(#paint0_linear_1_4)"/>
<path d="M60.5568 245.347C61.5081 245.21 62.4496 245.486 63.3737 245.677C63.378 245.92 63.3824 246.166 63.389 246.412C62.3536 246.394 61.3391 246.153 60.3103 246.058C60.3714 245.823 60.2535 245.429 60.5568 245.347Z" fill="white"/>
<path d="M44.5347 248.083C44.5118 247.487 44.9274 246.991 45.3814 246.657C45.3879 247.316 45.3814 247.983 45.5385 248.63C45.4851 248.694 45.3804 248.821 45.328 248.885C44.9658 248.737 44.5817 248.512 44.5347 248.083Z" fill="white"/>
<path d="M68.9104 248.972C68.6551 248.366 68.3573 247.765 68.282 247.104C68.6956 247.361 69.1067 247.724 69.181 248.235C69.2409 248.513 69.0337 248.742 68.9104 248.972Z" fill="white"/>
<path d="M51.6261 249.321C52.5383 249.167 53.4678 249.304 54.3819 249.169C55.5264 249.105 56.6784 249.104 57.8196 249.228C59.7769 249.214 61.7186 249.496 63.6606 249.697C64.7418 249.839 65.8022 250.124 66.832 250.482C67.2291 250.641 67.7091 250.823 67.8652 251.265C67.8935 251.515 67.6645 251.699 67.4758 251.823C67.0765 252.052 66.6325 252.185 66.2015 252.342C66.1578 251.977 66.1425 251.606 66.0509 251.252C65.7357 250.913 65.2567 250.803 64.829 250.675C62.7735 250.149 60.6494 249.939 58.534 249.873C57.5936 249.741 56.6434 249.81 55.6986 249.794C54.5728 249.795 53.4415 249.738 52.3211 249.877C51.2835 249.885 50.2602 250.068 49.2292 250.162C48.6018 250.263 47.9103 250.3 47.3801 250.686C47.0637 251.111 47.3245 251.666 47.4924 252.099C47.2926 252.17 47.0975 252.309 46.8781 252.285C46.5814 252.201 46.3011 252.003 46.1657 251.721C46.0719 251.339 46.1177 250.877 46.4363 250.61C47.0995 250.004 48.0007 249.77 48.868 249.639C49.7802 249.468 50.7096 249.454 51.6261 249.321Z" fill="white"/>
<path d="M62.225 254.869C62.3428 254.068 62.2741 253.198 62.753 252.501C62.8904 252.579 63.0236 252.668 63.1544 252.766C63.2592 253.435 63.1271 254.113 63.078 254.782C63.0561 255.646 62.935 256.505 62.9513 257.371C62.7757 259.097 62.8476 260.838 62.8585 262.571C62.9971 263.52 62.9022 264.484 63.0439 265.434C63.2293 267.072 63.524 268.696 63.8153 270.317C64.243 272.744 64.962 275.113 65.8849 277.396C66.2722 278.543 66.8952 279.584 67.4242 280.667C68.3449 282.477 69.3486 284.241 70.3972 285.979C70.8631 286.898 71.5546 287.675 72.05 288.576C72.9086 290.245 73.8753 291.868 74.5364 293.631C74.7448 294.022 74.7524 294.46 74.7556 294.895C74.3956 294.759 73.8938 294.722 73.7355 294.311C73.5348 293.845 73.3962 293.352 73.1453 292.911C72.0554 291.053 71.2711 289.032 70.1375 287.199C69.124 285.476 68.0363 283.796 67.156 281.999C66.628 280.865 65.9559 279.8 65.501 278.632C64.337 275.726 63.2918 272.744 62.8303 269.634C62.4571 267.818 62.3665 265.963 62.1025 264.131C61.988 263.352 61.9683 262.565 61.9498 261.781C61.808 260.714 61.8711 259.639 61.8636 258.569C61.8421 257.323 62.1431 256.104 62.225 254.869Z" fill="white"/>
<path d="M63.7326 253.021C64.3447 253.072 64.9546 253.356 65.3244 253.856C65.4323 254.846 65.3265 255.85 65.2557 256.843C65.2359 258.68 65.2437 260.517 65.2547 262.355C65.3791 263.79 65.439 265.238 65.7413 266.651C65.9661 268.021 66.2803 269.38 66.7231 270.697C67.0449 271.458 67.2948 272.247 67.5741 273.025C69.0852 276.293 71.1144 279.31 73.4894 282.013C74.0469 282.758 74.8095 283.309 75.3975 284.027C76.5822 285.32 77.7453 286.641 78.748 288.084C79.4319 289.09 79.8487 290.242 80.4206 291.31C81.182 292.737 81.5027 294.335 81.9653 295.872C81.2202 295.985 80.4771 295.831 79.7342 295.79C78.9039 295.703 78.0704 295.624 77.2566 295.439C77.0362 295.383 76.7865 295.307 76.6937 295.079C76.4472 294.574 76.3162 294.021 76.0512 293.527C75.6912 292.852 75.4545 292.12 75.0716 291.459C74.6494 290.73 74.3635 289.934 73.9436 289.205C72.4468 286.413 70.578 283.835 69.1892 280.984C68.4811 279.702 67.9138 278.352 67.2484 277.049C66.8436 276.093 66.4619 275.124 66.1334 274.14C65.6652 272.598 65.3369 271.02 64.9192 269.467C64.6737 268.083 64.2995 266.724 64.1337 265.327C63.9756 264.202 63.7028 263.089 63.6994 261.949C63.5053 260.651 63.695 259.333 63.5347 258.033C63.4692 257.482 63.6002 256.937 63.609 256.389C63.6016 255.263 63.7565 254.147 63.7326 253.021Z" fill="white"/>
<path d="M50.5983 262.748C50.9508 262.645 51.0195 263.072 51.0784 263.325C51.3729 264.887 50.9934 266.454 50.7708 267.999C50.4795 269.767 49.91 271.468 49.3885 273.178C48.7667 274.879 48.158 276.595 47.3048 278.198C46.91 278.951 46.5651 279.755 45.9727 280.379C45.6302 280.734 44.9166 280.829 44.7191 280.27C44.7834 279.752 45.0725 279.302 45.3234 278.859C45.9966 277.73 46.6565 276.588 47.1716 275.376C47.7172 274.01 48.3073 272.657 48.7022 271.237C49.3742 268.966 49.7222 266.612 49.8815 264.253C49.9285 263.839 49.96 263.413 50.1171 263.025C50.1894 262.824 50.3988 262.734 50.5983 262.748Z" fill="white"/>
<path d="M39.7564 283.206C40.0728 282.892 40.5114 282.668 40.9684 282.745C41.7778 282.856 42.6157 282.867 43.3838 283.18C42.4695 284.245 41.3133 285.095 40.5441 286.287C39.5328 287.607 38.6382 289.023 37.9323 290.534C37.6171 291.135 37.3115 291.797 36.7323 292.191C36.2456 292.511 35.6391 292.418 35.0882 292.445C34.6266 292.447 34.1761 292.582 33.7135 292.552C33.4899 292.344 33.5934 291.985 33.6132 291.718C33.7756 291.167 34.1685 290.726 34.4303 290.223C34.9355 289.267 35.6664 288.462 36.2478 287.555C36.8129 286.681 37.4937 285.893 38.1004 285.051C38.5846 284.379 39.1682 283.785 39.7564 283.206Z" fill="white"/>
<path d="M44.4792 283.779C44.7432 283.515 45.138 283.601 45.4666 283.659C46.3132 283.837 47.1543 284.057 47.9539 284.396C47.3452 285.213 46.671 285.981 46.1242 286.844C45.3606 287.86 44.7573 288.981 44.1594 290.099C43.7415 290.91 43.2506 291.748 42.451 292.233C41.6131 292.688 40.6379 292.448 39.7377 292.601C39.5479 292.616 39.3319 292.679 39.1748 292.537C38.9621 292.376 39.0374 292.065 39.0788 291.846C39.2491 291.415 39.5633 291.064 39.7825 290.661C40.6934 288.897 41.8029 287.243 42.9233 285.606C43.387 284.955 43.8693 284.301 44.4792 283.779Z" fill="white"/>
<path d="M54.9121 284.603C56.0379 284.255 57.2423 284.317 58.3988 284.449C59.4286 284.515 60.4672 284.632 61.4524 284.958C62.4386 285.292 63.4979 285.424 64.411 285.955C64.0761 286.304 63.6801 286.769 63.1345 286.646C61.7457 286.414 60.3951 285.918 58.9724 285.903C57.8084 285.902 56.6442 285.884 55.4814 285.888C54.8094 285.882 54.1274 285.973 53.4695 285.796C53.8495 285.297 54.2903 284.789 54.9121 284.603Z" fill="white"/>
<path d="M22.7021 294.071C23.2804 293.446 23.7986 292.719 24.5983 292.36C24.4804 293.314 23.5924 293.833 23.0131 294.502C22.101 295.591 21.1367 296.645 20.3315 297.821C20.0053 298.328 19.6977 298.848 19.366 299.354C18.6667 300.492 18.2412 301.765 17.783 303.013C17.292 304.106 17.1098 305.299 16.8852 306.467C16.631 307.748 16.6955 309.059 16.6877 310.36C16.7445 311.714 17.0533 313.05 17.4951 314.331C17.8159 315.2 18.2511 316.021 18.6657 316.849C19.173 317.725 19.7479 318.591 20.5411 319.236C20.7789 319.436 21.0093 319.646 21.2361 319.862C21.0124 319.969 20.7888 320.2 20.5204 320.115C19.8156 319.887 19.3138 319.301 18.835 318.77C18.2022 317.979 17.554 317.194 17.0304 316.327C15.9448 314.403 15.1985 312.241 15.1746 310.017C15.143 309.105 15.2129 308.194 15.3546 307.294C15.5695 305.681 15.7823 304.037 16.4707 302.544C17.1317 300.886 18.1191 299.388 19.174 297.959C20.2148 296.545 21.5393 295.379 22.7021 294.071Z" fill="white"/>
<path d="M88.1987 294.848C89.029 295.216 89.6519 295.892 90.3338 296.472C91.2294 297.356 92.2616 298.105 93.0503 299.097C94.1413 300.542 95.2673 301.978 96.08 303.607C97.028 305.426 97.5322 307.458 97.6325 309.504C97.567 310.886 97.3663 312.261 97.0969 313.617C96.846 314.565 96.4707 315.479 96.0332 316.356C95.2041 318.041 93.7934 319.479 92.0336 320.179C91.2908 320.491 90.4736 320.509 89.6881 320.631C89.1186 320.718 88.5392 320.682 87.9719 320.6C88.9952 320.237 90.0917 320.227 91.1434 320C92.41 319.628 93.5491 318.878 94.4588 317.928C94.9007 317.455 95.1537 316.849 95.419 316.27C95.91 315.144 96.391 313.966 96.3572 312.716C96.4924 311.484 96.4695 310.242 96.4315 309.005C96.3277 308.023 96.1292 307.05 95.8401 306.107C95.1364 304.13 94.113 302.277 92.8508 300.604C92.2234 299.68 91.4883 298.839 90.8216 297.945C90.0316 296.838 88.8022 296.091 88.1987 294.848Z" fill="white"/>
<path d="M32.7534 295.699C33.2836 295.567 33.8334 295.612 34.3692 295.524C34.726 295.458 35.0838 295.528 35.4319 295.609C35.2268 296.6 34.7194 297.503 34.582 298.513C34.0028 301.352 34.1697 304.26 34.1424 307.14C33.5194 307.238 32.8953 307.33 32.2659 307.381C31.6953 307.441 31.1193 307.552 30.5444 307.48C30.2029 306.995 30.2171 306.358 30.1277 305.793C30.0938 304.358 30.0512 302.907 30.3196 301.49C30.4538 300.93 30.6119 300.373 30.6665 299.8C30.7395 299.082 31.0559 298.426 31.2381 297.737C31.3962 297.216 31.5175 296.674 31.801 296.205C31.9918 295.862 32.4031 295.777 32.7534 295.699Z" fill="white"/>
<path d="M36.2193 302.958C36.3633 300.629 36.4844 298.182 37.6703 296.105C38.5332 296.221 39.394 296.364 40.2373 296.579C40.521 296.666 40.8493 296.745 41.0347 296.999C41.0445 297.53 40.8394 298.037 40.7315 298.552C40.3975 299.831 40.3464 301.156 40.1849 302.463C40.1357 303.131 40.1686 303.805 40.067 304.473C39.9711 305.174 40.1903 305.86 40.2416 306.555C40.258 306.818 39.9808 306.972 39.755 307.017C39.3295 307.081 38.8974 307.043 38.4699 307.059C37.8133 307.053 37.1608 307.232 36.5041 307.144C36.203 307.13 36.2454 306.77 36.2225 306.561C36.2247 305.939 36.1068 305.325 36.1178 304.704C36.1102 304.119 36.2291 303.543 36.2193 302.958Z" fill="white"/>
<path d="M74.8758 299.375C75.1082 299.04 75.3274 298.595 75.7802 298.543C76.0179 298.452 76.185 298.677 76.2778 298.866C76.4741 299.261 76.4894 299.711 76.5123 300.145C75.8545 300.227 75.2784 299.86 74.8758 299.375Z" fill="white"/>
<path d="M78.7128 298.973C79.8605 299.062 81.0059 299.313 82.0937 299.695C82.6164 299.841 82.7374 300.444 82.8193 300.906C82.7058 301.14 82.4571 301.032 82.2618 301C81.4424 300.808 80.6471 300.517 79.8125 300.393C79.4449 300.318 78.9887 300.275 78.8099 299.891C78.6757 299.617 78.438 299.272 78.619 298.976L78.7128 298.973Z" fill="white"/>
<path d="M76.3606 303.018C76.8058 303.177 77.4155 303.185 77.6513 303.669C77.9338 304.267 78.0103 304.933 78.1236 305.58C78.3428 306.803 78.4826 308.042 78.5447 309.283C78.5993 310.632 78.4171 311.973 78.2164 313.305C78.0505 314.17 77.899 315.052 77.529 315.861C77.4635 315.303 77.5901 314.75 77.588 314.195C77.5989 311.655 77.6752 309.085 77.1035 306.594C76.8931 305.433 76.4512 304.334 76.1619 303.194C76.2308 303.135 76.2963 303.076 76.3606 303.018Z" fill="white"/>
<path d="M79.2048 303.643C80.0187 303.863 80.8478 304.025 81.6726 304.207C82.0172 304.291 82.3806 304.359 82.6851 304.556C82.8804 304.931 82.7908 305.377 82.7908 305.786C82.5594 308.221 82.0577 310.648 81.126 312.916C80.6111 314.268 79.7513 315.461 78.7225 316.47C78.9395 315.582 79.3334 314.745 79.4939 313.845C79.6193 313.13 79.7667 312.415 79.7623 311.688C79.7557 310.629 79.7971 309.567 79.6663 308.514C79.6761 307.733 79.5681 306.963 79.4656 306.192C79.4339 305.335 79.1612 304.504 79.2048 303.643Z" fill="white"/>
<path d="M88.2676 311.278C88.5916 309.962 88.632 308.601 88.8785 307.274C88.9297 308.617 89.0553 309.996 88.6778 311.308C88.4464 312.134 88.2764 312.994 87.8475 313.751C87.7581 312.899 88.129 312.102 88.2676 311.278Z" fill="white"/>
<path d="M221.415 15.8641C222.707 16.0322 224.022 15.8444 225.271 15.5074C225.983 15.3306 226.577 14.8541 227.002 14.2672C227.62 13.5343 227.953 12.6192 228.14 11.6899C228.468 10.5469 228.277 9.33718 228.562 8.18658C228.68 7.7122 228.775 7.23106 228.819 6.74255C228.426 6.76883 227.999 6.73598 227.658 6.96391C227.174 7.26829 226.806 7.7132 226.409 8.11471C225.91 8.64045 225.322 9.06466 224.768 9.52728C223.862 10.3094 222.721 10.7324 221.753 11.4252C220.95 12.0098 220.082 12.4115 219.251 12.957C218.353 13.5468 217.533 14.2479 216.75 14.9813C216.134 15.5578 215.539 16.1558 214.935 16.744C214.613 17.0573 214.289 17.3687 213.957 17.6719C213.697 17.9091 213.32 18.3722 212.99 18.4512C212.78 17.9275 214.09 16.79 214.399 16.3941C215.292 15.2496 216.345 14.231 217.509 13.3641C218.665 12.5031 219.949 11.888 221.194 11.1891C221.796 10.8509 222.576 10.5706 222.755 9.81911C221.069 9.97877 219.458 10.6136 217.876 11.1889C216.227 11.7883 214.599 12.4444 212.971 13.1001C211.143 13.8371 209.304 14.5778 207.6 15.5773C205.999 16.5157 205 18.2404 204.058 19.8003C203.419 20.8354 202.99 21.9816 202.375 23.0287C201.984 23.6864 201.61 24.3595 201.129 24.9571C201.234 24.0037 201.746 23.176 202.115 22.3111C202.601 21.3731 202.889 20.3521 203.318 19.3902C203.663 18.5635 204.142 17.7531 204.107 16.826C203.711 16.8981 203.288 16.9297 202.948 17.1642C202.539 17.4392 202.187 17.7871 201.797 18.0859C200.824 18.8374 199.811 19.5365 198.758 20.1703C198.26 20.4594 197.814 20.8227 197.358 21.1694C196.429 21.8293 195.455 22.4259 194.458 22.9768C193.697 23.5505 192.782 23.9725 192.256 24.8026C191.6 25.5989 191.31 26.599 190.936 27.5403C190.562 28.499 190.28 29.4972 189.78 30.4013C189.312 31.2465 188.815 32.1137 188.038 32.7159C188.205 31.2674 189.539 30.3818 189.965 29.0401C190.282 28.0312 190.791 27.0682 190.871 25.9982C189.698 26.2261 188.843 27.1108 187.846 27.6932C186.308 28.772 184.728 29.7918 183.252 30.9545C182.402 31.6307 181.434 32.175 180.723 33.0105C179.971 33.8306 179.625 34.9137 179.282 35.9477C178.631 37.8368 178.486 39.8524 177.863 41.7493C177.215 43.7212 176.744 45.8219 175.472 47.5126C174.91 48.2173 174.501 49.0625 173.758 49.6058C173.811 49.2415 173.887 48.8619 174.14 48.5794C174.802 47.8104 175.164 46.8507 175.551 45.9268C175.953 44.8372 176.434 43.7738 176.733 42.6482C177.047 41.5193 177.257 40.3644 177.448 39.2092C177.595 38.2144 177.962 37.2733 178.217 36.3036C178.472 35.3569 178.901 34.4702 179.178 33.53C178.615 33.7154 178.085 34.0044 177.668 34.4298C176.956 35.1409 176.147 35.743 175.428 36.4453C174.703 37.0768 174.007 37.7695 173.14 38.2079C172.507 38.5252 171.905 38.9267 171.21 39.0979C170.804 39.2092 170.361 39.2725 170.032 39.5571C169.598 39.9214 169.226 40.3544 168.783 40.7089C167.992 41.3874 166.926 41.6306 166.153 42.3329C165.112 43.2622 164.496 44.5525 163.959 45.8156C163.488 46.8354 163.418 47.9709 163.172 49.0528C162.891 50.5362 162.557 52.0119 162.397 53.516C162.29 54.4616 162.259 55.4312 161.926 56.3344C161.563 57.3226 161.189 58.3085 160.883 59.3176C160.49 60.6362 159.977 61.9134 159.535 63.2157C158.952 64.8867 158.162 66.5172 156.941 67.8175C157.127 66.7595 157.803 65.8967 158.22 64.9293C159.107 62.7871 159.85 60.5882 160.472 58.3555C160.778 57.2125 161.312 56.1294 161.433 54.9427C161.525 54.0527 161.642 53.1649 161.717 52.2739C161.877 50.6728 162.27 49.0922 162.252 47.4758C162.072 47.5478 161.881 47.5936 161.724 47.7081C160.909 48.3017 160.281 49.1491 159.58 49.8644C158.78 50.6801 157.966 51.4814 157.137 52.2675C156.043 53.3046 154.925 54.3155 153.782 55.2987C153.255 55.7521 152.613 56.172 152.171 56.7074C151.777 57.186 151.242 57.5176 150.85 58.0022C150.302 58.6796 149.766 59.3831 149.435 60.1979C148.982 61.1152 148.677 62.1218 148.024 62.9291C148.033 62.0488 148.321 61.2067 148.401 60.3354C148.13 60.462 147.847 60.5743 147.62 60.774C146.87 61.4426 146.246 62.2389 145.483 62.8932C144.936 63.3634 144.412 63.8607 143.939 64.4039C143.26 65.1827 142.37 65.7401 141.696 66.5222C141.166 67.1329 140.667 67.7765 140.261 68.4756C139.886 69.1029 139.887 69.8522 139.82 70.5578C139.661 72.0827 139.9 73.6227 139.704 75.1465C139.363 75.0014 138.808 74.9393 138.81 74.4605C138.815 73.4375 138.942 72.4165 138.997 71.3945C139.022 70.5493 139.287 69.7311 139.276 68.8847C138.853 69.0091 138.419 69.1562 138.092 69.466C137.729 69.8112 137.6 70.2304 137.333 70.6251C136.976 71.1535 136.42 71.6193 135.988 72.0897C135.09 73.0669 134.191 74.0441 133.293 75.0213C131.62 76.8424 129.946 78.6636 128.273 80.4847C126.817 82.068 125.297 83.6484 124.345 85.6022C123.887 86.5414 123.291 87.4064 122.823 88.341C122.584 88.8175 122.549 89.3608 122.361 89.8549C122.165 90.3565 121.757 90.758 121.635 91.2903C121.548 91.6688 121.762 92.0179 121.922 92.345C122.26 92.9635 122.298 93.6821 122.514 94.3442C121.073 94.5417 119.761 95.2506 118.663 96.181C118.262 96.5126 118.165 97.0535 117.87 97.4616C117.6 97.7659 117.226 97.9481 116.892 98.1705C117.008 98.3874 117.117 98.609 117.222 98.8347C117.17 98.7223 115.687 99.2201 115.534 99.2677C115.02 99.4268 114.608 99.6895 114.166 100.002C113.251 100.65 112.414 101.403 111.64 102.213C110.054 103.875 108.735 105.767 107.429 107.651C106.805 108.552 106.177 109.46 105.747 110.468C104.954 112.327 105.343 113.994 105.782 115.878C106.104 117.235 106.552 118.559 107.071 119.853C107.354 120.514 106.944 121.162 106.523 121.649C106.376 121.37 106.226 121.093 106.109 120.8C105.653 119.541 105.134 118.302 104.782 117.007C104.545 116.114 104.501 115.188 104.434 114.271C104.383 113.542 104.513 112.821 104.607 112.101C104.651 111.809 104.545 111.529 104.464 111.255C103.849 111.784 103.538 112.548 103.071 113.193C102.543 114.042 101.815 114.759 101.388 115.671C100.922 116.647 100.215 117.474 99.6432 118.386C99.0355 119.342 98.382 120.269 97.8115 121.249C97.4941 121.796 97.1483 122.325 96.8056 122.856C96.1423 123.884 95.6143 124.992 95.1647 126.127C94.8734 126.91 94.6072 127.721 94.5865 128.564C94.5495 128.956 94.5974 129.425 94.2842 129.722C93.8042 130.191 93.2031 130.523 92.7634 131.038C92.1655 131.738 91.514 132.405 91.0192 133.189C90.5055 134.002 90.1172 134.888 89.7596 135.778C89.354 136.788 88.98 137.815 88.4803 138.784C88.2545 139.221 87.9986 139.813 87.6293 140.148C87.2677 140.476 86.7504 140.695 86.3529 140.988C85.5053 141.583 84.7678 142.313 83.9779 142.978C83.2667 143.579 82.6459 144.286 82.1526 145.077C81.7578 145.722 81.1806 146.226 80.766 146.858C79.8824 148.22 79.0467 149.619 78.3615 151.093C77.9655 151.95 78.1324 152.959 77.6786 153.796C77.3819 154.363 77.0241 154.896 76.7272 155.464C75.8981 157.164 74.7166 158.653 73.8241 160.316C73.3419 161.158 73.1456 162.123 72.9644 163.066C72.7975 164.103 72.648 165.144 72.5781 166.192C72.5333 166.847 72.6828 167.493 72.6774 168.146C72.6764 168.787 72.6326 169.436 72.7668 170.07C72.8072 170.398 72.9522 170.787 72.7069 171.074C72.4626 171.451 72.0186 171.584 71.6094 171.694C71.6225 170.77 71.7991 169.864 72 168.966C72.2095 168.071 72.156 167.145 72.1167 166.235C72.0534 166.23 71.927 166.222 71.8637 166.218C71.6705 166.565 71.4808 166.914 71.293 167.266C70.9493 167.928 70.4683 168.513 70.1987 169.215C69.8158 170.197 69.3978 171.167 68.9429 172.12C68.4901 173.048 68.1235 174.019 67.5911 174.908C67.0915 175.735 66.7707 176.651 66.4478 177.556C66.1991 178.248 66.21 178.99 66.2045 179.715C66.175 180.564 66.5469 181.358 66.5798 182.204C66.9103 184.096 67.5616 185.913 68.2261 187.711C67.5082 187.282 67.1797 186.489 66.6867 185.854C65.9667 184.943 65.7933 183.763 65.5161 182.671C65.3198 181.959 65.5107 181.133 65.0295 180.518C64.4437 181.308 64.1546 182.258 63.6648 183.102C63.1062 184.06 62.9262 185.169 62.6272 186.222C62.4058 187.333 61.7708 188.362 61.8636 189.527C61.8526 190.784 62.5475 191.875 62.8683 193.055C62.7689 192.995 62.672 192.937 62.576 192.879C61.8353 192.479 61.7371 191.555 61.3477 190.885C61.0116 191.391 60.68 191.916 60.5393 192.515C60.3854 193.092 60.512 193.694 60.4323 194.28C60.3559 194.75 60.0941 195.159 59.9033 195.59C59.6622 196.105 59.5618 196.672 59.3185 197.187C58.9388 197.983 58.6136 198.804 58.2395 199.604C57.7987 200.555 57.7071 201.648 57.9494 202.665C58.2734 204.021 58.9814 205.235 59.5684 206.487C59.8565 207.12 60.3103 207.662 60.595 208.298C60.7139 208.519 60.5853 208.76 60.5273 208.981C60.1618 208.667 59.829 208.311 59.5923 207.891C58.9934 206.86 58.3606 205.851 57.7541 204.826C57.454 204.334 57.2282 203.768 56.7667 203.4C56.1884 203.011 55.4412 203.056 54.7986 203.235C55.0997 203.908 55.5939 204.475 55.8613 205.165C56.1602 205.91 56.4602 206.664 56.5956 207.46C56.7932 208.598 56.7647 209.758 56.7396 210.908C56.7173 211.929 56.6004 212.908 56.6958 213.937C56.7967 215.025 57.0104 216.102 57.2963 217.157C57.676 218.559 58.1814 219.922 58.7204 221.268C59.2116 222.496 59.5943 223.742 60.2978 224.873C60.7641 225.623 61.3208 226.31 61.8397 227.023C62.3522 227.727 62.6917 228.56 63.209 229.241C63.5809 229.715 63.797 230.288 63.869 230.884C63.4425 230.586 63.0716 230.223 62.716 229.847C62.1487 229.249 61.3588 228.956 60.7085 228.469C60.2034 228.091 59.6638 227.672 59.1919 227.223C58.6905 226.746 58.2992 226.154 57.7443 225.735C57.5982 225.965 57.333 226.188 57.3963 226.493C57.5195 227.159 57.9146 227.733 58.2624 228.303C58.6911 228.999 59.5768 229.517 60.2002 230.036C61.1922 230.862 62.2749 231.624 63.0027 232.703C63.1325 233.123 63.0463 233.601 63.2689 233.999C63.4445 234.316 63.5929 234.65 63.6988 235C62.4878 234.388 61.3085 233.701 60.2263 232.882C59.4649 232.289 59.3109 231.29 58.8408 230.506C58.5169 230.428 58.4655 230.852 58.4623 231.086C58.4667 231.986 58.5157 232.968 59.0537 233.729C59.6112 234.363 60.376 234.76 61.084 235.202C61.5968 235.517 61.9546 236.033 62.1859 236.581C62.4042 237.107 62.3377 237.699 62.1794 238.233C61.5575 240.311 61.0339 242.43 60.1283 244.41C61.8532 244.652 63.5779 244.942 65.2591 245.406C65.7969 245.54 66.3556 245.556 66.9009 245.653C66.674 245.531 66.4472 245.411 66.2214 245.291C66.4308 244.159 66.8062 243.07 67.1803 241.986C67.8087 240.011 68.3672 238.011 69.1211 236.078C69.2847 235.652 69.3359 235.183 69.5629 234.786C69.9665 234.296 70.6767 234.357 71.2233 234.527C71.8346 234.667 72.3366 235.317 72.8337 235.675C73.4008 236.085 73.9569 236.526 74.4603 237.012C74.9041 237.441 75.2804 237.933 75.7977 238.283C77.3464 239.331 79.6148 239.538 81.3747 238.945C81.8154 238.797 82.1718 238.375 82.3541 237.961C81.2439 238.184 80.1064 238.408 78.9863 238.239C77.9565 238.085 76.9978 237.603 76.1552 236.992C75.4945 236.512 74.8981 235.952 74.3181 235.379C74.0712 235.136 73.9078 234.997 73.6003 234.864C73.4331 234.792 72.6527 234.597 72.5936 234.43C72.4682 234.074 72.7758 233.651 73.1477 233.642C73.4576 233.62 73.7696 233.676 74.0631 233.779C74.6761 233.988 75.0612 234.613 75.7203 234.726C77.2781 235.025 78.8416 235.468 80.443 235.373C81.4139 235.268 82.374 235.073 83.3396 234.92C84.5036 234.748 85.719 234.803 86.834 234.376C87.5323 234.107 87.9196 233.431 88.3536 232.868C88.9328 232.118 89.3355 231.251 89.9312 230.515C90.336 229.973 90.8051 229.468 91.1128 228.861C91.2884 228.556 91.2055 228.154 90.9513 227.923C90.5606 227.765 90.1287 227.789 89.7186 227.758C89.94 227.172 90.1243 226.509 90.6765 226.142C91.1139 225.846 91.4739 225.438 91.9409 225.19C93.3265 224.934 94.7555 225.17 96.1368 224.875C98.0154 224.613 99.8996 223.987 101.362 222.743C102.19 222.064 102.514 221.006 102.934 220.064C103.264 219.141 103.719 218.267 104.012 217.332C104.261 216.519 104.693 215.781 105.089 215.033C105.508 214.224 106.178 213.55 106.426 212.655C105.994 212.707 105.542 212.779 105.189 213.055C104.608 213.485 104.067 213.967 103.485 214.396C102.76 214.986 101.908 215.414 101.271 216.109C100.98 216.434 100.607 216.669 100.197 216.814C100.449 215.763 101.467 215.234 102.099 214.439C102.644 213.749 103.341 213.199 103.85 212.48C104.402 211.692 105.391 211.465 106.15 210.943C107.303 210.203 108.268 209.211 109.149 208.172C110.254 206.909 110.535 205.189 111.408 203.789C111.977 202.781 112.64 201.804 112.961 200.681C113.198 199.88 113.306 199.043 113.623 198.267C113.931 197.536 114.105 196.757 114.445 196.04C114.814 195.235 115.105 194.395 115.516 193.61C115.789 193.046 116.456 192.84 117.037 192.799C117.578 192.849 118.043 193.192 118.583 193.261C119.05 193.318 119.532 193.329 119.995 193.233C120.591 193.059 121.007 192.524 121.617 192.372C122.166 192.223 122.725 192.027 123.128 191.602C124.305 190.44 125.263 189.083 126.337 187.831C127.1 186.945 127.668 185.909 128.473 185.058C129.023 184.483 129.564 183.898 130.14 183.347C130.675 182.86 131.371 182.585 131.863 182.045C131.552 182.018 131.228 182.011 130.943 182.159C130.041 182.568 129.08 182.857 128.242 183.398C127.264 184.022 126.203 184.525 125.077 184.818C125.742 184.206 126.586 183.864 127.344 183.393C128.331 182.797 129.345 182.246 130.382 181.744C131.093 181.406 131.734 180.925 132.242 180.323C132.869 179.665 133.289 178.852 133.808 178.114C134.88 178.54 135.933 179.013 136.997 179.458C138.472 180.05 140.044 180.523 141.652 180.421C142.625 180.374 143.513 179.931 144.457 179.746C145.441 179.561 146.192 178.835 146.841 178.122C147.376 177.465 147.966 176.817 148.229 175.995C147.705 176.213 147.241 176.541 146.787 176.874C146.386 177.161 145.924 177.344 145.454 177.483C144.987 177.621 144.495 177.809 144.014 177.875C143.532 177.942 143.044 177.971 142.558 177.97C141.584 177.967 140.61 177.832 139.671 177.574C139.085 177.413 138.513 177.204 137.961 176.948C137.681 176.818 137.406 176.676 137.138 176.522C136.877 176.371 136.779 176.185 136.608 175.939C137.649 175.97 138.669 176.231 139.713 176.235C140.241 176.222 140.769 176.193 141.296 176.157C141.64 176.133 141.979 176.138 142.317 176.079C142.707 176.01 143.098 175.941 143.488 175.872C144.101 175.761 144.715 175.655 145.329 175.547C145.63 175.494 145.853 175.438 146.123 175.299C146.401 175.158 146.673 175.005 146.957 174.875C147.802 174.484 148.545 173.919 149.303 173.385C150.127 172.761 150.738 171.912 151.485 171.21C152.035 170.729 152.801 171.057 153.448 171.039C154.758 171.044 156.071 171.068 157.381 171.025C158.474 170.891 159.579 170.978 160.673 170.857C162.086 170.732 163.513 170.752 164.907 170.465C167.218 170.197 169.4 169.345 171.536 168.466C172.346 168.115 173.086 167.63 173.845 167.183C174.543 166.77 175.185 166.27 175.785 165.726C176.395 165.171 177.064 164.659 177.529 163.967C178.056 163.171 178.627 162.398 179.042 161.534C179.521 160.515 180.65 160.111 181.394 159.333C182.413 158.275 183.418 157.198 184.325 156.04C185.062 155.132 185.845 154.253 186.457 153.252C186.948 152.476 187.321 151.635 187.737 150.819C188.035 150.229 188.262 149.605 188.415 148.963C189.37 144.944 189.639 140.168 186.882 136.768C185.925 135.588 184.675 134.649 183.279 134.052C181.602 133.335 179.915 133.57 178.166 133.884C178.118 134.085 178.071 134.288 178.013 134.489C178.971 134.715 179.958 134.752 180.925 134.911C183.354 135.289 185.527 137.035 186.699 139.159C187.572 140.742 187.928 142.601 187.72 144.395C187.509 146.228 187.344 148.019 186.643 149.767C186.316 150.546 185.948 151.308 185.575 152.066C184.728 153.805 183.421 155.262 182.107 156.66C181.45 157.267 180.896 158.055 180.01 158.342C180.099 158.313 179.68 155.087 179.627 154.72C179.474 153.654 179.152 152.613 178.688 151.64C177.481 149.111 175.276 146.905 172.495 146.242C171.854 146.09 171.183 146.018 170.533 146.13C169.883 146.242 169.253 146.55 168.833 147.058C170.491 147.092 172.131 147.14 173.689 147.747C175.101 148.296 176.165 149.444 176.798 150.804C177.846 153.055 178.058 155.749 177.325 158.11C177.088 158.872 176.852 159.657 176.371 160.306C176.018 160.793 175.428 160.995 174.906 161.241C172.36 162.445 169.818 163.366 167.035 163.829C164.115 164.314 161.161 164.604 158.202 164.696C157.131 164.73 156.059 164.738 154.987 164.719C154.668 164.714 153.917 164.838 153.719 164.571C153.502 164.278 153.578 163.502 153.44 163.131C153.269 162.673 152.819 162.419 152.451 162.139C153.24 161.874 154.071 161.711 154.807 161.306C155.244 161.064 155.666 160.795 156.08 160.516C156.838 160.005 157.412 159.256 157.805 158.44C158.087 157.851 158.067 157.188 158.089 156.552C158.085 156.117 158.412 155.794 158.687 155.498C159.491 154.681 160.048 153.656 160.489 152.607C160.763 151.963 161.041 151.297 161.055 150.587C161.096 149.782 160.891 148.957 160.439 148.286C160.289 148.025 159.961 148.021 159.705 147.951C159.452 149.112 159.227 150.282 158.86 151.414C158.619 152.065 158.163 152.604 157.811 153.196C157.387 153.916 156.734 154.451 156.133 155.017C155.395 155.693 154.453 156.119 153.478 156.32C152.568 156.503 151.659 156.798 150.721 156.726C149.464 156.678 148.162 156.396 147.138 155.631C147.519 155.284 147.932 154.968 148.267 154.574C148.676 154.06 148.838 153.408 149.143 152.835C149.543 151.987 150.264 151.184 150.134 150.183C150.11 149.745 149.566 149.906 149.284 149.936C148.001 150.206 146.679 149.82 145.548 149.217C143.835 148.178 142.496 146.654 140.88 145.485C140.166 144.862 139.412 144.274 138.795 143.551C139.544 143.656 140.164 144.101 140.818 144.439C143.081 145.64 145.299 146.951 147.7 147.859C148.419 148.211 149.167 148.492 149.95 148.664C151.234 149.036 152.539 149.392 153.884 149.452C154.918 149.508 155.954 149.341 156.939 149.031C157.473 148.855 157.927 148.516 158.401 148.227C159.832 147.407 160.72 145.951 161.499 144.549C161.956 143.806 162.043 142.863 161.801 142.034C161.649 141.516 161.22 141.168 160.784 140.893C160.725 140.951 160.608 141.067 160.55 141.124C160.789 142.565 160.543 144.076 159.903 145.385C159.563 146.121 158.916 146.646 158.325 147.175C157.829 147.615 157.128 147.625 156.502 147.614C155.559 147.601 154.685 147.204 153.847 146.815C152.874 146.357 152.037 145.659 151.312 144.874C150.782 144.265 150.285 143.597 150.066 142.808C150.802 142.597 151.577 142.462 152.249 142.075C152.895 141.691 153.471 141.164 153.826 140.494C154.867 138.56 155.695 136.517 156.78 134.605C157.064 134.012 157.512 133.342 157.198 132.673C156.364 133.204 155.558 133.818 154.573 134.038C153.224 134.547 151.765 134.254 150.427 133.87C149.299 133.552 148.295 132.921 147.324 132.282C146.555 131.692 145.716 131.191 145.016 130.514C145.106 130.452 145.196 130.387 145.285 130.321C146.65 130.851 148.04 131.32 149.457 131.69C150.493 131.935 151.529 132.258 152.607 132.235C153.841 132.299 155.099 132.148 156.249 131.676C156.904 131.402 157.413 130.875 157.823 130.308C158.092 129.94 158.223 129.491 158.492 129.124C158.876 128.933 159.335 128.995 159.752 128.929C160.4 128.877 160.934 128.474 161.512 128.222C162.005 127.997 162.548 127.904 163.031 127.654C163.53 127.379 163.933 126.964 164.317 126.548C164.834 125.962 165.339 125.285 165.388 124.476C165.437 123.592 165.288 122.709 165.088 121.851C164.717 121.994 164.282 122.102 164.067 122.472C163.866 122.85 163.849 123.292 163.768 123.707C163.655 124.488 163.444 125.294 162.888 125.886C162.421 126.498 161.677 126.846 160.912 126.856C159.682 126.868 158.436 126.499 157.456 125.747C156.787 125.225 156.07 124.699 155.696 123.912C156.346 123.884 156.997 123.911 157.649 123.918C158.61 123.923 159.593 123.714 160.407 123.185C161.278 122.646 161.823 121.751 162.391 120.929C162.879 120.114 163.417 119.309 163.684 118.388C163.782 118.104 163.867 117.798 164.078 117.574C164.698 117.551 165.291 117.767 165.897 117.871C166.647 118.002 167.383 118.216 168.139 118.321C170.528 118.524 172.918 118.631 175.284 118.158C178.208 117.573 181.113 116.279 183.315 114.24C183.961 113.669 184.438 112.945 184.915 112.235C185.576 111.298 186.05 110.25 186.628 109.263C187.004 108.548 187.489 107.887 187.772 107.125C187.915 106.806 187.797 106.461 187.736 106.138C187.376 106.339 187.026 106.584 186.834 106.962C186.338 107.854 185.66 108.622 185.086 109.462C183.711 111.489 181.249 112.805 178.963 113.494C176.511 114.233 173.873 114.372 171.361 113.859C170.869 113.758 170.389 113.714 169.894 113.611C168.602 113.34 167.328 112.988 166.093 112.52C165.374 112.213 164.601 112 163.976 111.51C164.349 111.495 164.725 111.5 165.099 111.472C165.753 111.414 166.372 111.1 166.825 110.628C167.239 110.196 167.491 110.033 168.093 110.074C168.728 110.117 169.364 110.147 170 110.161C171.301 110.189 172.604 110.152 173.9 110.035C176.476 109.802 179.034 109.246 181.429 108.256C182.274 107.906 183.111 107.495 183.777 106.87C184.444 106.244 184.926 105.374 184.909 104.46C184.905 104.227 184.844 103.958 184.635 103.854C184.382 103.728 184.073 103.934 183.958 104.191C183.843 104.449 183.854 104.743 183.806 105.021C183.681 105.743 183.154 106.345 182.531 106.732C180.617 107.92 178.268 108.188 176.059 108.116C174.931 108.08 173.806 107.949 172.693 107.761C172.285 107.692 169.083 107.085 169.04 107.203C169.224 106.7 169.461 106.219 169.68 105.732C170.005 104.814 170.435 103.937 170.838 103.054C171.446 102.883 172.097 103.003 172.72 102.894C174.136 102.773 175.432 102.159 176.754 101.692C177.778 101.309 178.707 100.701 179.505 99.9597C180.002 99.496 180.524 99.0063 180.76 98.352C180.731 98.3279 180.672 98.2799 180.642 98.256C180.293 98.3978 179.966 98.5877 179.644 98.7806C179.549 98.5994 179.455 98.4207 179.363 98.2439C178.342 98.726 177.877 99.8691 176.887 100.395C175.828 100.962 174.621 101.284 173.417 101.244C172.201 101.21 170.969 101.533 169.769 101.222C170.374 100.754 171.145 100.616 171.793 100.229C172.689 99.7349 173.359 98.9442 174.088 98.2461C174.309 98.0126 174.632 97.9417 174.942 97.9166C176.539 97.7662 178.143 97.6931 179.745 97.6123C180.445 97.5534 181.13 97.3897 181.818 97.2577C183.896 96.8399 185.897 95.9401 187.519 94.5648C188.11 94.0631 188.743 93.6001 189.169 92.9378C189.514 92.4007 189.244 92.3094 188.815 91.9208C188.084 91.1898 187.287 90.6434 186.418 90.096C186.058 89.8696 185.86 89.7368 186.338 89.5804C186.713 89.4579 187.122 89.4044 187.505 89.3061C188.977 88.928 190.458 88.3953 191.61 87.3703C193.234 85.9265 194.075 83.5652 194.088 81.429C194.089 81.2347 194.083 81.0343 194.002 80.8571C193.922 80.6801 193.751 80.5306 193.557 80.533C193.354 80.5354 193.183 80.7008 193.106 80.8886C193.029 81.0763 193.025 81.2845 193.014 81.487C192.944 82.792 192.522 84.0766 191.805 85.1691C191.257 86.0036 190.519 86.7391 189.603 87.1372C188.706 87.5274 187.69 87.5718 186.72 87.4464C183.036 86.9702 180.755 84.1978 178.732 81.3532C178.593 81.1002 178.339 80.8067 178.477 80.5058C179.474 80.5155 180.403 80.9801 181.397 81.0303C182.272 81.0172 183.061 80.5058 183.633 79.8753C184.203 79.2383 184.728 78.5621 185.233 77.8727C185.732 77.2009 186.089 76.4297 186.657 75.809C187.244 75.1545 187.931 74.5557 188.292 73.7345C188.498 73.306 188.415 72.8182 188.394 72.3624C188.401 72.5163 187.288 73.0995 187.132 73.1951C186.655 73.4879 186.167 73.7632 185.668 74.0154C184.757 74.4751 183.891 74.7179 182.86 74.7886C181.592 74.8756 180.307 74.7076 179.104 74.2969C177.887 73.8808 176.788 73.1933 175.585 72.731C174.764 72.405 173.907 72.1235 173.201 71.5739C173.283 71.638 173.775 71.5822 173.904 71.5992C174.113 71.6266 174.338 71.6517 174.542 71.6905C175.069 71.7901 175.586 71.9569 176.111 72.0682C177.176 72.2941 178.255 72.4543 179.34 72.5483C181.778 72.7597 184.092 72.5485 186.475 72.1235C187.457 71.8759 188.483 71.6426 189.335 71.0698C191.204 69.5788 191.548 67.0234 193.141 65.3375C193.565 64.8883 193.961 64.2982 193.822 63.6959C192.281 64.8263 190.43 65.5151 188.531 65.7393C186.581 65.9698 184.577 65.7048 182.746 64.9973C182.283 64.818 181.83 64.6104 181.392 64.3751C181.183 64.263 180.372 63.9112 180.848 63.7253C181.175 63.5977 182.059 63.9662 182.401 64.0446C182.93 64.166 183.459 64.2867 183.997 64.3577C186.245 64.6548 188.874 64.7871 191.053 64.0607C191.551 63.8927 192.007 63.5939 192.536 63.5219C193.089 63.4476 193.663 63.4837 194.202 63.3093C194.824 63.1052 195.321 62.6537 195.917 62.391C196.562 62.0932 197.284 62.0442 197.952 61.8107C198.613 61.5828 199.256 61.2589 199.767 60.7724C200.619 59.9478 201.424 59.0688 202.108 58.0991C202.462 57.4884 202.744 56.8153 202.85 56.115C202.93 55.6918 202.486 55.477 202.225 55.2381C201.641 55.9285 201.363 56.8273 200.716 57.4675C200.144 58.0531 199.433 58.4905 198.687 58.8156C197.986 59.1243 197.204 59.0532 196.461 59.0218C194.667 58.8625 192.898 58.4196 191.237 57.7261C190.403 57.3934 189.574 57.0389 188.825 56.5416C187.85 55.8992 186.81 55.3679 185.832 54.7343C183.93 53.5258 181.803 52.6871 179.604 52.2169C178.478 51.9617 177.323 52.109 176.184 52.0151C176.423 51.8897 176.657 51.7348 176.932 51.6944C177.983 51.4872 179.039 51.7708 180.084 51.8831C181.461 52.0433 182.733 52.6129 184.035 53.048C184.884 53.3556 185.754 53.6142 186.577 53.9926C187.37 54.3547 188.207 54.6033 189.013 54.935C191.058 55.7464 193.227 56.3692 195.445 56.3235C197.226 56.2743 199.049 55.4945 200.118 54.033C200.672 53.3197 201.353 52.7144 201.876 51.9749C202.29 51.4426 202.536 50.8111 202.855 50.2231C203.172 49.6331 203.888 49.5064 204.413 49.1684C205.246 48.6503 206.077 48.0756 206.671 47.2793C207.235 46.5453 207.691 45.714 207.917 44.8121C207.966 44.5362 208.043 44.1806 207.793 43.9766C207.305 44.5155 207.049 45.2168 206.573 45.7654C205.964 46.5529 205.125 47.1113 204.282 47.6153C203.701 47.9535 203.031 48.0602 202.393 48.2326C201.884 48.369 201.366 48.4671 200.85 48.5675C200.711 48.3624 200.58 48.1518 200.446 47.9458C200.125 48.2687 199.824 48.6994 199.341 48.7637C198.764 48.8193 198.18 48.7976 197.607 48.7289C196.66 48.5599 195.688 48.406 194.825 47.9589C195.641 47.6677 196.496 47.4648 197.251 47.0241C198.218 46.4777 199.27 45.9322 199.866 44.9506C200.3 44.2296 201.002 43.7377 201.694 43.2872C202.039 43.0496 202.472 43.08 202.87 43.0637C203.5 43.0505 204.129 42.9841 204.741 42.8292C205.567 42.6188 206.437 42.5445 207.216 42.1705C208.262 41.684 209.234 40.998 209.961 40.0948C210.565 39.3422 211.258 38.6223 211.585 37.6941C211.793 37.2163 211.856 36.6502 212.214 36.2511C212.717 35.9369 213.328 35.8639 213.856 35.5977C214.612 35.2726 215.078 34.5626 215.671 34.0271C216.64 33.1361 217.346 31.995 218.381 31.1705C219.114 30.4344 219.855 29.5857 220.047 28.5321C218.943 28.8375 217.962 29.4798 216.838 29.7265C214.98 30.1095 213.068 30.1811 211.178 30.0529C210.276 29.9918 209.375 29.8835 208.481 29.7528C208.041 29.6885 207.599 29.6194 207.161 29.5392C206.923 29.4954 206.057 29.1319 205.872 29.2073C206.84 28.8136 207.87 29.1822 208.872 29.1124C211.777 28.9199 214.749 29.1173 217.61 28.473C218.908 28.1805 220.293 27.6552 221.283 26.7335C222.19 25.8893 223.294 24.9395 223.61 23.687C223.114 23.7971 222.641 23.9771 222.168 24.1538C221.685 24.3404 221.163 24.2225 220.685 24.0862C221.869 23.3249 223.262 22.8155 224.189 21.7083C224.501 21.3156 224.285 20.79 224.052 20.4158C223.396 20.9186 222.763 21.4738 222.005 21.8218C221.112 22.2635 220.104 22.3409 219.145 22.5569C218.494 22.7042 217.825 22.7347 217.161 22.7216C215.952 22.7281 214.721 22.5764 213.606 22.0889C214.851 21.6363 216.196 21.8108 217.49 21.6832C218.319 21.5817 219.142 21.4334 219.969 21.307C220.927 21.1619 221.854 20.874 222.791 20.6373C223.542 20.4508 224.216 20.0583 224.871 19.6601C225.758 19.1137 226.482 18.3262 226.996 17.4242C227.488 16.5724 228.269 15.81 228.288 14.7661C227.502 15.1304 226.813 15.6714 226.008 15.9953C225.098 16.4524 224.067 16.6377 223.054 16.5603C222.016 16.4675 220.954 16.5089 219.946 16.2069C220.128 16.0652 220.292 15.8405 220.546 15.8317C220.835 15.8096 221.125 15.8391 221.415 15.8641ZM155.739 166.918C157.119 166.762 158.498 166.606 159.878 166.45C162.184 166.189 164.537 166.068 166.827 165.719C168.44 165.474 170.035 165.005 171.619 164.622C169.683 166.063 167.34 166.882 164.964 167.304C163.021 167.65 161.045 167.742 159.076 167.775C156.96 167.811 154.738 168.152 152.746 167.257C153.744 167.144 154.741 167.031 155.739 166.918ZM167.389 48.795C167.631 47.3466 167.795 45.8807 168.179 44.4593C168.485 43.2552 168.976 42.026 169.938 41.1949C169.732 41.9758 169.364 42.7 169.141 43.4744C168.598 45.3961 168.265 47.3683 167.792 49.3064C167.601 50.1484 167.58 51.0623 167.076 51.7997C167.054 50.7888 167.248 49.7919 167.389 48.795ZM163.828 55.1635C163.994 53.9452 164.187 52.7311 164.401 51.5206C164.54 50.2597 164.803 49.0173 165.048 47.774C165.263 46.8686 165.398 45.8641 166.104 45.1857C166.003 46.4532 165.685 47.689 165.485 48.9421C165.253 50.3927 165.036 51.8477 164.801 53.2984C164.622 54.29 164.299 55.2475 163.998 56.2062C163.859 56.6643 163.638 57.0909 163.365 57.4824C163.389 56.684 163.74 55.951 163.828 55.1635ZM152.467 62.3394C152.77 61.3895 152.845 60.3826 153.174 59.4392C153.541 58.379 153.764 57.2501 154.381 56.2948C154.567 55.9687 154.882 55.7559 155.191 55.5586C155.053 56.333 154.66 57.0246 154.425 57.7685C154.184 58.5309 153.897 59.2758 153.625 60.0273C153.078 61.4584 152.861 62.9874 152.356 64.4316C152.076 65.2115 151.823 66.0066 151.423 66.7362C151.629 65.2428 151.988 63.7683 152.467 62.3394ZM148.266 68.5194C148.465 67.492 148.606 66.4515 148.908 65.4468C149.271 63.8991 149.73 62.3776 150.199 60.8594C150.442 59.9355 150.802 58.9877 151.586 58.3856C151.542 59.0815 151.434 59.7794 151.179 60.4318C150.991 60.8986 150.842 61.3807 150.768 61.8802C150.613 62.9338 150.065 63.8706 149.801 64.8948C149.456 66.2485 149.05 67.5846 148.694 68.9359C148.576 69.4725 148.444 70.0124 148.189 70.5043C147.936 69.8555 148.15 69.1716 148.266 68.5194ZM141.554 97.6425C142.754 97.635 143.956 97.6393 145.156 97.6033C146.396 97.5607 147.622 97.7614 148.849 97.8967C150.131 98.0767 151.372 98.4651 152.61 98.8325C153.137 98.9852 153.662 99.152 154.171 99.3593C154.915 99.6712 155.718 99.8938 156.342 100.431C155.136 100.417 153.924 100.34 152.743 100.076C151.266 99.8589 149.826 99.452 148.352 99.2163C146.484 98.9229 144.615 98.6056 142.725 98.5117C141.771 98.4876 140.806 98.4396 139.865 98.6317C139.387 98.7342 138.898 98.7527 138.412 98.7233C139.295 98.0156 140.447 97.7363 141.554 97.6425ZM139.074 76.2688C139.291 76.3365 139.546 76.3528 139.728 76.5055C139.948 76.8262 139.95 77.2385 139.976 77.6137C139.98 78.157 140.006 78.759 139.679 79.2258C139.521 79.4646 139.227 79.5301 138.97 79.6032C138.863 78.495 138.856 77.3639 139.074 76.2688ZM137.557 87.1281C137.978 85.6741 138.476 84.2355 138.727 82.7391C138.806 82.2669 138.827 81.7848 138.943 81.3201C138.996 81.0104 139.294 80.8499 139.508 80.658C139.95 81.2907 139.75 82.1055 139.552 82.7892C139.196 83.8101 138.981 84.8725 138.608 85.8879C138.249 86.85 137.935 87.8304 137.523 88.7728C137.184 89.5286 136.965 90.3488 136.439 91.0065C136.328 90.9617 136.22 90.9149 136.114 90.8657C136.428 89.5571 137.187 88.4172 137.557 87.1281ZM135.892 91.6839C136.51 91.482 137.173 91.4974 137.79 91.6992C137.715 91.8879 137.646 92.0798 137.551 92.2598C136.988 92.4551 136.378 92.4125 135.795 92.4899C134.952 92.5401 134.157 92.8542 133.324 92.9611C133.985 92.2271 134.981 91.9654 135.892 91.6839ZM129.359 118.276C131.303 118.548 133.116 119.387 134.776 120.405C135.39 120.794 135.929 121.289 136.54 121.684C136.979 121.97 137.396 122.292 137.754 122.679C136.899 122.521 136.265 121.896 135.525 121.495C134.565 120.944 133.56 120.481 132.57 119.992C131.463 119.546 130.305 119.233 129.152 118.936C128.169 118.672 127.147 118.792 126.144 118.789C127.066 118.094 128.274 118.162 129.359 118.276ZM122.375 108.641C122.445 107.637 122.558 106.631 122.489 105.624C122.432 105.01 122.498 104.396 122.465 103.782C122.373 102.43 122.604 101.087 122.747 99.7476C122.841 99.0125 122.875 98.2033 123.345 97.5914C123.689 97.7713 123.822 98.1848 123.85 98.5491C123.862 98.8174 123.587 98.9832 123.538 99.2297C123.579 99.498 123.692 99.7478 123.755 100.013C123.889 100.503 123.729 101.004 123.722 101.501C123.67 102.296 123.848 103.087 123.775 103.882C123.697 104.678 123.786 105.483 123.656 106.276C123.477 107.614 123.151 108.924 122.885 110.246C122.808 110.626 122.639 110.977 122.455 111.314C122.142 110.453 122.303 109.528 122.375 108.641ZM117.979 132.458C118.282 132.273 118.613 132.055 118.987 132.131C119.785 132.257 120.591 132.162 121.393 132.206C122.945 132.306 124.502 132.433 126.032 132.734C127.441 133.083 128.985 133.233 130.174 134.147C129.378 134.246 128.638 133.889 127.873 133.744C126.309 133.428 124.717 133.264 123.125 133.175C122.031 133.161 120.936 133.159 119.842 133.184C119.033 133.23 118.237 133.405 117.447 133.576C116.703 133.717 116.064 134.252 115.28 134.18C115.987 133.335 117.078 133.029 117.979 132.458ZM118.424 137.147C118.896 137.09 119.368 137.19 119.828 137.29C119.18 137.592 118.458 137.677 117.812 137.984C117.226 138.263 116.55 138.17 115.949 138.399C114.925 138.771 113.92 139.284 112.81 139.334C113.17 138.552 114.102 138.432 114.815 138.139C115.973 137.666 117.176 137.284 118.424 137.147ZM112.301 105.405C112.472 104.713 112.453 103.927 112.974 103.375C113.222 104.086 113.047 104.826 113.009 105.552C112.967 105.896 113.192 106.172 113.376 106.436C113.243 106.749 113.07 107.055 113.041 107.402C112.943 109.688 113.298 111.964 113.272 114.251C113.382 115.651 113.364 117.059 113.537 118.457C113.605 119.545 113.599 120.64 113.539 121.73C113.534 122.144 113.395 122.534 113.267 122.923C113.159 122.414 113.022 121.908 112.976 121.388C112.941 121.124 113.107 120.892 113.203 120.661C113.045 120.637 112.886 120.614 112.73 120.594C112.703 119.822 112.883 119.061 112.841 118.29C112.785 117.1 112.888 115.904 112.728 114.72C112.638 113.809 112.393 112.916 112.376 111.998C112.329 111.225 112.259 110.455 112.248 109.682C112.112 108.265 111.912 106.801 112.301 105.405ZM107.948 122.65C108.382 123.844 108.621 125.107 108.743 126.37C108.767 127.353 108.887 128.364 108.612 129.325C108.252 128.405 108.25 127.399 107.958 126.46C107.787 125.737 107.436 125.073 107.252 124.356C107.188 123.714 107.593 123.148 107.948 122.65ZM95.4799 133.802C95.8967 134.536 96.0581 135.37 96.3231 136.163C96.7355 137.5 97.0029 138.879 97.4185 140.215C97.7 141.088 97.748 142.011 97.9923 142.893C98.3153 144.025 98.5084 145.189 98.6763 146.353C98.7985 147.309 98.9773 148.285 98.7832 149.246C98.3282 148.414 98.1755 147.467 97.8723 146.578C97.5788 145.383 97.1511 144.229 96.8325 143.042C96.4408 141.773 96.1909 140.467 95.903 139.173C95.7427 137.957 95.4863 136.755 95.3935 135.531C95.3306 134.955 95.3043 134.362 95.4799 133.802ZM85.7255 143.427C85.9842 142.669 86.3671 141.849 87.1416 141.504C87.2561 141.704 87.1144 141.916 87.0457 142.106C86.6888 142.855 86.4075 143.642 86.2711 144.462C86.2112 144.846 86.0823 145.214 85.9187 145.566C85.5455 144.918 85.4878 144.132 85.7255 143.427ZM82.8848 170.093C83.0974 170.499 83.2372 170.938 83.332 171.388C83.6211 172.756 84.099 174.08 84.3029 175.466C84.412 176.299 84.8942 177.038 84.9281 177.888C84.6575 177.685 84.3531 177.497 84.184 177.194C83.9865 176.829 83.9168 176.416 83.8196 176.019C83.2022 173.58 82.4101 171.192 81.6606 168.793C81.4042 167.696 80.9504 166.653 80.765 165.54C80.644 164.856 80.4508 164.156 80.6515 163.466C81.2068 164.802 81.5615 166.212 81.9836 167.595C82.2552 168.436 82.4659 169.307 82.8848 170.093ZM80.9821 162.048C80.9733 162.264 80.9635 162.482 80.956 162.702C80.5141 162.475 80.0811 162.232 79.6785 161.942C80.1006 161.65 80.5838 161.786 80.9821 162.048ZM78.0887 155.308C78.153 155.314 78.2829 155.324 78.3484 155.329C78.6451 156.62 78.9571 157.91 79.4023 159.159C79.5692 159.633 79.998 159.928 80.2806 160.324C80.1944 160.519 80.0395 160.67 79.9074 160.836C79.4515 161.346 79.1427 161.96 78.7914 162.541C78.7337 162.54 78.6168 162.537 78.5579 162.536C78.0527 161.338 77.9272 160.029 77.8028 158.749C77.7713 157.597 77.8717 156.438 78.0887 155.308ZM71.4786 175.238C71.5146 174.706 71.7382 174.197 72.2215 173.931C72.4319 174.794 72.3688 175.689 72.4887 176.567C72.6436 177.917 72.949 179.256 73.4422 180.525C73.8317 181.578 74.207 182.639 74.6717 183.663C75.0809 184.564 75.3874 185.507 75.7203 186.438C75.958 187.151 76.4753 187.757 76.5384 188.527C76.2242 188.382 75.9765 188.137 75.8314 187.824C75.4168 186.983 74.795 186.262 74.424 185.397C74.0368 184.524 73.5752 183.688 73.2087 182.807C72.8192 181.799 72.3969 180.8 72.1133 179.756C71.7056 178.292 71.1709 176.776 71.4786 175.238ZM66.3052 194.51C66.6118 194.787 66.9205 195.081 67.0919 195.466C67.2916 195.851 67.3766 196.294 67.6209 196.658C67.8806 196.888 68.244 196.945 68.5538 197.086C69.3262 197.368 69.8291 198.054 70.3898 198.617C71.0718 199.307 71.4535 200.215 71.8256 201.094C71.9991 201.485 72.0154 201.916 72.0046 202.338C71.5682 201.6 71.301 200.773 70.7805 200.083C70.1859 199.274 69.6557 198.345 68.7457 197.848C68.2778 197.573 67.7627 197.386 67.2992 197.104C67.0865 196.999 67.0405 196.752 66.974 196.552C66.8082 195.846 66.2463 195.272 66.3052 194.51ZM65.4237 205.347C65.9016 206.104 66.1873 206.957 66.5921 207.752C66.9816 208.593 67.4332 209.426 67.6012 210.348C67.7737 211.29 67.8282 212.248 67.8925 213.202C67.9624 214.051 68.1161 214.934 67.8141 215.759C67.2195 215.139 66.9348 214.32 66.531 213.582C65.9124 212.438 65.3757 211.253 64.8039 210.086C64.5235 209.369 64.026 208.655 64.1623 207.848C64.3175 206.914 64.6938 205.98 65.4237 205.347ZM63.3551 205.696C63.2285 205.869 62.9722 206.104 62.7715 205.89C62.3624 205.395 62.1475 204.774 61.8803 204.197C61.4341 203.194 61.1002 202.118 61.1123 201.01C61.132 200.142 60.7479 199.33 60.737 198.466C61.5968 199.265 62.1519 200.314 62.8414 201.251C63.5331 202.258 64.4331 203.146 64.8555 204.316C64.2967 204.708 63.7719 205.152 63.3551 205.696ZM68.4172 229.481C68.1183 230.592 67.7496 231.681 67.4561 232.794C67.0447 233.971 66.6477 235.156 66.3564 236.372C66.1196 237.301 65.8359 238.219 65.5141 239.123C65.1573 240.303 64.8039 241.484 64.4722 242.672C64.2671 243.245 64.1536 243.852 63.8961 244.407C63.5754 244.909 62.7321 244.592 62.6634 244.053C62.7234 243.554 62.9416 243.095 63.078 242.618C63.3703 241.651 63.5875 240.659 63.9845 239.728C64.4308 238.669 64.554 237.513 64.9457 236.437C65.6384 234.253 66.6246 232.169 67.2225 229.954C67.9491 227.883 68.5458 225.764 69.3871 223.734C69.901 222.544 70.3134 221.313 70.79 220.108C71.5178 218.389 72.3513 216.709 72.9022 214.921C73.2296 213.839 73.7859 212.847 74.1393 211.776C74.88 209.956 75.5881 208.12 76.4325 206.346C76.7445 205.63 76.9747 204.88 77.3554 204.196C77.8048 203.32 78.1475 202.394 78.5981 201.518C79.1938 200.136 79.7436 198.734 80.3011 197.335C80.6458 196.344 81.1979 195.444 81.5786 194.468C81.8743 193.713 82.2114 192.977 82.4961 192.219C82.9041 191.017 83.2521 189.781 83.8827 188.671C84.1336 188.227 84.3552 187.767 84.5745 187.308C84.8855 188.35 84.1991 189.302 83.921 190.268C83.6384 191.277 83.0885 192.181 82.7918 193.185C82.6707 193.556 82.5266 193.921 82.3641 194.278C82.0226 194.998 81.8185 195.781 81.3898 196.46C80.8652 197.301 80.6687 198.285 80.288 199.19C79.9007 200.116 79.5144 201.042 79.1456 201.976C78.8346 202.768 78.3918 203.5 78.0961 204.298C77.6194 205.587 76.9397 206.789 76.4335 208.068C76.0626 209.003 75.6862 209.937 75.3284 210.878C75.071 211.65 74.8724 212.439 74.5724 213.196C73.7847 215.527 72.6251 217.711 71.8274 220.037C71.4499 221.106 71.0266 222.159 70.6744 223.236C69.8793 225.302 69.1167 227.38 68.4172 229.481ZM74.0565 229.593C73.3823 229.779 72.6623 229.848 72.048 230.205C71.7404 230.376 71.4087 230.498 71.0772 230.614C71.1371 230.238 71.1938 229.804 71.5463 229.583C72.3349 229.029 73.3321 228.932 74.2606 228.795C76.0727 228.646 77.8902 228.81 79.7014 228.892C80.4464 228.939 81.1927 229.036 81.8998 229.289C79.3216 229.966 76.6366 228.925 74.0565 229.593ZM85.0143 225.777C83.8786 225.631 82.713 225.603 81.5696 225.517C80.5591 225.442 79.5487 225.366 78.5381 225.291C77.5908 225.22 76.6107 225.269 75.6601 225.335C74.663 225.297 73.7433 225.727 72.7768 225.887C72.8423 225.571 72.7965 225.128 73.1575 224.982C73.9866 224.637 74.9041 224.619 75.7856 224.531C77.2325 224.445 78.7229 224.631 80.1655 224.719C81.6698 224.811 83.1721 224.931 84.6716 225.081C85.307 225.144 85.972 225.236 86.6114 225.219C87.0249 225.208 87.4427 225.233 87.8409 225.36C87.014 225.944 85.9679 225.851 85.0143 225.777ZM89.1284 214.438C87.9186 215 86.5624 214.95 85.2642 215.073C83.6605 215.065 82.0601 214.911 80.4606 214.797C79.7274 214.731 78.9965 214.843 78.2666 214.888C78.3581 214.32 78.7554 213.891 79.2104 213.572C79.9795 212.998 80.861 212.564 81.8036 212.362C83.2207 212.011 84.6904 212.167 86.1337 212.18C87.4069 212.301 88.6887 212.202 89.9631 212.301C90.3253 212.318 90.6721 212.432 90.9963 212.593C90.5314 213.339 89.9913 214.124 89.1284 214.438ZM94.0343 214.325C93.3611 214.581 92.6935 214.956 91.9484 214.896C92.4536 214.179 92.9804 213.458 93.2228 212.601C94.4087 212.564 95.5868 212.73 96.7728 212.74C96.0647 213.57 95 213.899 94.0343 214.325ZM105.908 193.222C105.278 193.367 104.648 193.527 104.004 193.597C101.843 193.832 99.6609 193.662 97.4926 193.66C96.131 193.66 94.7695 193.68 93.4085 193.723C92.7128 193.744 92.0175 193.771 91.3224 193.804C90.7314 193.832 90.1331 193.728 89.5491 193.847C89.1531 193.923 88.7505 193.935 88.3512 193.959C88.5093 193.562 88.6065 193.046 89.0452 192.862C89.5851 192.634 90.1875 192.726 90.7569 192.731C91.6352 192.782 92.4948 192.552 93.3677 192.506C96.0743 192.269 98.7625 192.544 101.465 192.538C103.415 192.533 105.365 192.529 107.314 192.524C107.681 192.523 109.763 192.302 109.876 192.668C110.004 193.08 107.85 192.929 107.581 192.944C107.018 192.978 106.463 193.094 105.908 193.222ZM112.536 198.571C111.635 199.011 110.666 199.295 109.762 199.729C108.878 200.151 107.792 200.387 106.88 199.911C107.793 199.447 108.794 199.212 109.744 198.842C110.398 198.619 110.984 198.247 111.619 197.982C112.045 197.797 112.512 197.752 112.973 197.721C113.021 198.069 112.875 198.432 112.536 198.571ZM114.51 186.417C113.653 186.417 112.791 186.457 111.943 186.32C110.932 186.152 109.895 186.218 108.891 185.992C106.404 185.478 103.891 185.104 101.375 184.772C99.952 184.548 98.5152 184.43 97.0784 184.371C95.8445 184.446 94.6052 184.515 93.3886 184.742C92.4743 184.904 91.5317 185.033 90.7026 185.48C90.0186 185.846 89.3257 186.196 88.5926 186.456C88.5522 186.404 88.4725 186.297 88.4323 186.244C88.8512 185.864 89.2909 185.489 89.8233 185.278C90.4987 185 91.1663 184.705 91.8351 184.415C93.0722 183.901 94.4152 183.746 95.7354 183.6C97.2594 183.541 98.7933 183.547 100.31 183.736C102.596 184.029 104.806 184.748 107.097 185.028C108.149 185.157 109.186 185.409 110.248 185.461C111.617 185.555 112.965 185.885 114.343 185.856C114.721 185.829 115.078 185.958 115.402 186.145C115.124 186.287 114.83 186.427 114.51 186.417ZM121.773 179.546C120.202 179.542 118.631 179.394 117.086 179.106C114.918 178.701 112.887 177.92 110.785 177.298C106.675 176.083 102.549 174.823 98.2112 175.035C97.67 175.061 97.0852 175.063 96.5627 175.201C96.3046 175.269 96.0551 175.344 95.7839 175.371C95.6396 175.385 95.1581 175.423 95.0492 175.339C94.7764 175.128 95.3091 174.72 95.5074 174.651C95.9697 174.491 96.5002 174.48 96.9796 174.35C97.4959 174.21 98.025 174.116 98.5568 174.061C99.6264 173.95 100.709 173.995 101.773 174.14C104.271 174.479 106.927 175.186 109.189 176.303C110.286 176.844 111.529 176.958 112.65 177.434C113.931 178.003 115.334 178.193 116.681 178.547C118 178.912 119.378 178.845 120.732 178.915C122.24 179.08 123.746 178.893 125.256 178.791C124.929 179.324 124.217 179.443 123.593 179.486C122.988 179.527 122.381 179.547 121.773 179.546ZM134.224 169.856C132.912 170.135 131.601 170.461 130.253 170.484C129.468 170.485 128.621 170.639 127.902 170.238C127.104 169.791 126.299 169.354 125.495 168.919C124.776 168.53 124.096 168.047 123.376 167.648C122.542 167.187 121.684 166.77 120.805 166.402C119.958 166.046 119.078 165.826 118.227 165.522C117.665 165.339 117.1 165.065 116.493 165.128C116.025 165.192 115.646 165.499 115.236 165.711C113.924 166.384 112.583 167.083 111.101 167.275C110.311 167.236 109.556 166.95 108.791 166.769C107.203 166.323 105.537 166.28 103.899 166.356C101.593 166.48 99.3989 167.32 97.3643 168.366C96.8331 168.655 96.3355 169.07 95.7017 169.083C96.2975 168.291 97.2116 167.861 98.068 167.414C99.0488 166.884 100.136 166.605 101.203 166.304C103.451 165.674 105.831 165.683 108.129 166.014C108.964 166.138 109.779 166.366 110.586 166.613C111.411 166.863 112.255 166.54 113.015 166.23C114.025 165.763 115.024 165.276 115.994 164.731C116.507 164.441 117.079 164.534 117.655 164.557C118.292 164.583 118.929 164.632 119.562 164.703C120.632 164.823 121.695 165.009 122.743 165.257C123.758 165.498 124.774 165.832 125.803 166.006C126.453 166.111 127.074 166.338 127.711 166.5C128.833 166.749 129.94 167.065 131.062 167.32C132.164 167.656 133.314 167.779 134.423 168.091C135.229 168.327 136.101 168.353 136.843 168.785C136.072 169.354 135.136 169.611 134.224 169.856ZM144.84 172.515C144.274 172.771 143.694 172.994 143.077 173.145C141.759 173.468 140.251 173.6 138.919 173.278C138.303 173.129 137.679 173.129 137.072 172.926C136.972 172.893 138.028 171.192 138.12 171.049C138.527 170.417 138.706 169.688 139.111 169.073C139.158 169.002 140.023 169.182 140.135 169.199C140.438 169.247 140.712 169.342 141.004 169.414C141.746 169.597 142.54 169.655 143.294 169.793C144.011 169.925 144.726 170.069 145.439 170.225C145.784 170.301 146.129 170.379 146.473 170.46C146.802 170.537 147.273 170.567 147.569 170.728C147.901 170.907 147.603 171.026 147.346 171.204C147.077 171.389 146.79 171.548 146.499 171.695C145.944 171.977 145.399 172.262 144.84 172.515ZM149.105 158.922C150.415 158.998 151.721 158.823 153.004 158.57C153.753 158.359 154.485 158.085 155.216 157.818C156.102 157.491 156.759 156.72 157.696 156.511C157.184 158.031 155.843 159.078 154.437 159.736C153.52 160.16 152.502 160.394 151.489 160.348C149.927 160.296 148.341 160.124 146.886 159.521C146.373 159.334 145.951 158.981 145.58 158.591C146.77 158.54 147.913 158.994 149.105 158.922ZM140.824 157.897C141.25 157.737 141.613 158.037 141.903 158.312C142.818 159.182 143.951 159.759 144.989 160.461C145.839 161.045 146.832 161.352 147.797 161.688C148.978 162.073 150.213 162.246 151.453 162.269C151.567 162.953 151.824 163.621 151.829 164.32C151.758 164.625 151.391 164.616 151.146 164.6C150.078 164.49 149.022 164.289 147.957 164.159C146.808 164.029 145.686 163.735 144.553 163.518C141.31 162.881 138.143 161.917 135.018 160.859C133.06 160.291 131.12 159.67 129.178 159.058C126.919 158.449 124.736 157.573 122.438 157.116C121.841 157.007 121.266 156.813 120.704 156.591C121.922 156.605 123.128 156.803 124.339 156.926C125.331 157.011 126.302 157.247 127.295 157.336C128.507 157.464 129.705 157.695 130.908 157.882C132.207 158.07 133.495 158.399 134.815 158.391C135.554 158.379 136.292 158.443 137.031 158.485C138.323 158.541 139.582 158.204 140.824 157.897ZM147.837 121.843C146.894 121.019 145.948 119.991 145.254 118.951C144.605 117.978 144.067 117.007 143.263 116.138C141.699 114.447 139.7 113.155 137.503 112.457C136.471 112.128 135.409 111.892 134.333 111.764C133.329 111.644 132.191 111.837 131.245 111.486C133.734 110.683 136.602 110.887 138.927 112.049C141.063 113.117 142.992 114.594 144.585 116.371C145.991 117.939 147.245 119.77 148.33 121.572C148.688 122.192 149.32 122.649 149.498 123.368C148.868 122.946 148.403 122.338 147.837 121.843ZM160.862 118.58C160.224 118.618 159.617 118.386 159.047 118.129C155.373 116.479 152.173 114.047 148.991 111.63C148.242 111.061 147.363 110.683 146.663 110.047C147.758 110.197 148.748 110.718 149.776 111.095C152.043 111.928 154.137 113.227 156.323 114.247C158.115 115.083 159.928 115.874 161.76 116.617C162.192 116.792 162.658 116.934 163.076 117.141C163.352 117.279 163.38 117.209 163.278 117.484C163.221 117.64 163.002 117.807 162.877 117.91C162.304 118.382 161.584 118.535 160.862 118.58ZM169.66 98.4038C168.66 98.6307 167.613 98.4866 166.659 98.1376C165.663 97.8661 164.68 97.5486 163.743 97.1168C162.677 96.6566 161.593 96.2453 160.54 95.7568C159.548 95.4164 158.627 94.8994 157.616 94.6137C157.112 94.4642 156.624 94.2614 156.188 93.9692C155.59 93.5744 154.901 93.3594 154.245 93.0879C153.75 92.8807 153.21 92.8512 152.683 92.8196C152.002 92.7803 151.335 92.5502 150.649 92.6406C149.886 92.7387 149.126 92.8675 148.379 93.0485C147.656 93.2328 146.908 93.1206 146.173 93.1663C145.233 93.2133 144.315 93.4422 143.38 93.5338C144.024 92.8435 144.958 92.5598 145.857 92.383C146.497 92.2532 147.154 92.3297 147.799 92.252C148.46 92.1702 149.033 91.8081 149.654 91.5965C150.101 91.4394 150.58 91.4122 151.051 91.4253C151.688 91.4416 152.348 91.4874 152.931 91.7743C154.002 92.2934 155.15 92.6261 156.277 93.0025C157.173 93.321 157.987 93.8217 158.833 94.2459C159.729 94.6888 160.705 94.9255 161.638 95.2754C162.578 95.631 163.551 95.8874 164.491 96.2439C165.563 96.6518 166.693 96.8743 167.796 97.1885C168.695 97.4534 169.649 97.4687 170.533 97.796C170.275 98.0385 170.021 98.3263 169.66 98.4038ZM178.421 93.922C179.509 94.09 180.611 94.0104 181.706 94.0333C183.193 94.0791 184.677 93.825 186.164 93.9373C186.408 93.9821 186.62 94.1282 186.837 94.2471C185.735 94.6255 184.574 94.7935 183.421 94.9135C181.519 94.9593 179.615 94.9048 177.719 94.7575C176.992 94.6637 176.28 94.4859 175.58 94.2753C176.414 93.7225 177.474 93.801 178.421 93.922ZM174.946 92.3416C174.663 92.2968 174.699 91.8889 174.913 91.7701C175.478 91.3447 176.242 91.482 176.869 91.6741C176.346 92.1125 175.65 92.5313 174.946 92.3416ZM175.916 90.5233C175.717 90.6858 175.538 90.9159 175.264 90.9444C174.662 91.0359 174.09 90.7666 173.523 90.6105C172.759 90.3707 171.949 90.3478 171.188 90.1001C169.551 89.5101 167.94 88.8349 166.408 88.006C165.087 87.3548 163.746 86.72 162.56 85.8387C164.474 86.3099 166.253 87.1846 168.108 87.8348C169.163 88.1969 170.186 88.6627 171.272 88.9288C172.219 89.1699 173.143 89.4916 174.103 89.6837C174.769 89.8057 175.373 90.1274 175.916 90.5233ZM173.996 80.0274C173.178 79.6784 172.52 79.0653 171.765 78.6107C170.165 77.5472 168.282 77.0641 166.531 76.3168C165.476 75.8739 164.379 75.5086 163.239 75.3701C162.129 75.2403 161.017 75.0559 159.951 74.7114C160.464 74.538 160.998 74.3471 161.549 74.4333C162.567 74.5674 163.597 74.6841 164.578 75.0038C165.658 75.3518 166.74 75.7041 167.772 76.1817C168.743 76.6309 169.77 76.9387 170.769 77.3171C171.445 77.5648 172.047 77.9758 172.589 78.4448C173.117 78.9128 173.781 79.3098 173.996 80.0274ZM179.793 43.8868C179.521 44.4464 179.257 45.0735 178.67 45.3713C178.716 44.5577 179.264 43.925 179.602 43.2182C179.954 42.5059 180.293 41.7827 180.769 41.1415C180.513 42.0783 180.183 42.9968 179.793 43.8868ZM194.442 46.0529C192.977 46.1576 191.493 45.8805 190.157 45.2773C189.412 44.9293 188.631 44.6622 187.9 44.2869C188.998 44.1844 189.998 44.7014 191.032 44.9729C191.586 45.129 192.141 45.3046 192.719 45.3525C193.864 45.4365 195.016 45.3494 196.163 45.4409C195.69 45.8641 195.064 46.0375 194.442 46.0529ZM195.779 43.6621C194.185 43.6053 192.509 43.7242 191.031 43.0066C191.704 42.6717 192.466 42.7404 193.192 42.7808C194.244 42.8758 195.289 43.0338 196.341 43.1298C197.074 43.2062 197.819 43.169 198.541 43.3382C197.681 43.7624 196.705 43.6511 195.779 43.6621Z" fill="url(#paint1_linear_1_4)"/>
<defs>
<linearGradient id="paint0_linear_1_4" x1="56.9724" y1="244.316" x2="56.9724" y2="325.248" gradientUnits="userSpaceOnUse">
<stop stop-color="#0094FF"/>
<stop offset="1" stop-color="#9B4EFD" stop-opacity="0.99"/>
</linearGradient>
<linearGradient id="paint1_linear_1_4" x1="141.809" y1="6.74255" x2="141.809" y2="245.653" gradientUnits="userSpaceOnUse">
<stop stop-color="#0094FF"/>
<stop offset="1" stop-color="#9B4EFD" stop-opacity="0.99"/>
</linearGradient>
</defs>
</svg>
