<svg width="59" height="59" viewBox="0 0 59 59" fill="none" xmlns="http://www.w3.org/2000/svg">
<g clip-path="url(#clip0_3_2)">
<path d="M22.4969 29.5012L0.583504 7.58925C-0.194498 6.81112 -0.194498 5.55193 0.583504 4.77405L4.77148 0.584543C5.14447 0.211804 5.65063 0.00193787 6.17895 0.00193787C6.70739 0.00193787 7.21355 0.211804 7.58655 0.584543L29.4999 22.4982L51.4133 0.584543C51.7863 0.211804 52.2925 0.00193787 52.8209 0.00193787C53.3492 0.00193787 53.8555 0.211804 54.2284 0.584543L58.4164 4.77405C59.1945 5.55193 59.1945 6.81112 58.4164 7.58925L36.503 29.5014L58.4142 51.4108C59.1919 52.1889 59.1919 53.4481 58.4142 54.226L54.226 58.4155C53.8532 58.7882 53.3469 58.9981 52.8185 58.9981C52.2901 58.9981 51.7839 58.7882 51.4108 58.4155L29.5001 36.5044L7.58924 58.4155C7.21624 58.7882 6.71008 58.9981 6.18164 58.9981C5.65307 58.9981 5.1469 58.7882 4.77416 58.4155L0.585934 54.226C-0.191812 53.4481 -0.191812 52.1889 0.585934 51.4108L22.4969 29.5012Z" fill="black"/>
</g>
<defs>
<clipPath id="clip0_3_2">
<rect width="59" height="59" fill="white" transform="matrix(-1 0 0 1 59 0)"/>
</clipPath>
</defs>
</svg>
